<svg xmlns="http://www.w3.org/2000/svg" xmlns:xlink="http://www.w3.org/1999/xlink" width="347" zoomAndPan="magnify" viewBox="0 0 260.25 191.999996" height="256" preserveAspectRatio="xMidYMid meet" version="1.0"><defs><g/><clipPath id="9a99578a8a"><path d="M 221 33 L 233 33 L 233 45 L 221 45 Z M 221 33 " clip-rule="nonzero"/></clipPath><clipPath id="fa9b7fa6fe"><path d="M 203.289062 0.277344 L 259.140625 46.753906 L 219.847656 93.96875 L 164 47.492188 Z M 203.289062 0.277344 " clip-rule="nonzero"/></clipPath><clipPath id="fabf8353d4"><path d="M 203.289062 0.277344 L 259.140625 46.753906 L 219.847656 93.96875 L 164 47.492188 Z M 203.289062 0.277344 " clip-rule="nonzero"/></clipPath><clipPath id="36861af7fb"><path d="M 203.289062 0.277344 L 259.140625 46.753906 L 219.847656 93.96875 L 164 47.492188 Z M 203.289062 0.277344 " clip-rule="nonzero"/></clipPath><clipPath id="134022001e"><path d="M 213 45 L 235 45 L 235 68 L 213 68 Z M 213 45 " clip-rule="nonzero"/></clipPath><clipPath id="8961c44cd3"><path d="M 203.289062 0.277344 L 259.140625 46.753906 L 219.847656 93.96875 L 164 47.492188 Z M 203.289062 0.277344 " clip-rule="nonzero"/></clipPath><clipPath id="3faea20364"><path d="M 203.289062 0.277344 L 259.140625 46.753906 L 219.847656 93.96875 L 164 47.492188 Z M 203.289062 0.277344 " clip-rule="nonzero"/></clipPath><clipPath id="f1ca7e4590"><path d="M 203.289062 0.277344 L 259.140625 46.753906 L 219.847656 93.96875 L 164 47.492188 Z M 203.289062 0.277344 " clip-rule="nonzero"/></clipPath><clipPath id="8602aaa4df"><path d="M 233 32 L 245 32 L 245 46 L 233 46 Z M 233 32 " clip-rule="nonzero"/></clipPath><clipPath id="3c64d2b126"><path d="M 203.289062 0.277344 L 259.140625 46.753906 L 219.847656 93.96875 L 164 47.492188 Z M 203.289062 0.277344 " clip-rule="nonzero"/></clipPath><clipPath id="f8d79f33ef"><path d="M 203.289062 0.277344 L 259.140625 46.753906 L 219.847656 93.96875 L 164 47.492188 Z M 203.289062 0.277344 " clip-rule="nonzero"/></clipPath><clipPath id="c9e3dd1b24"><path d="M 203.289062 0.277344 L 259.140625 46.753906 L 219.847656 93.96875 L 164 47.492188 Z M 203.289062 0.277344 " clip-rule="nonzero"/></clipPath><clipPath id="4c92acbb76"><path d="M 234 55 L 247 55 L 247 65 L 234 65 Z M 234 55 " clip-rule="nonzero"/></clipPath><clipPath id="720e972538"><path d="M 203.289062 0.277344 L 259.140625 46.753906 L 219.847656 93.96875 L 164 47.492188 Z M 203.289062 0.277344 " clip-rule="nonzero"/></clipPath><clipPath id="09e7563829"><path d="M 203.289062 0.277344 L 259.140625 46.753906 L 219.847656 93.96875 L 164 47.492188 Z M 203.289062 0.277344 " clip-rule="nonzero"/></clipPath><clipPath id="e8b149c1ca"><path d="M 203.289062 0.277344 L 259.140625 46.753906 L 219.847656 93.96875 L 164 47.492188 Z M 203.289062 0.277344 " clip-rule="nonzero"/></clipPath><clipPath id="7dd2fb92d3"><path d="M 238 43 L 253 43 L 253 54 L 238 54 Z M 238 43 " clip-rule="nonzero"/></clipPath><clipPath id="5c2b00be3a"><path d="M 203.289062 0.277344 L 259.140625 46.753906 L 219.847656 93.96875 L 164 47.492188 Z M 203.289062 0.277344 " clip-rule="nonzero"/></clipPath><clipPath id="55d12a4234"><path d="M 203.289062 0.277344 L 259.140625 46.753906 L 219.847656 93.96875 L 164 47.492188 Z M 203.289062 0.277344 " clip-rule="nonzero"/></clipPath><clipPath id="436a9437f1"><path d="M 203.289062 0.277344 L 259.140625 46.753906 L 219.847656 93.96875 L 164 47.492188 Z M 203.289062 0.277344 " clip-rule="nonzero"/></clipPath><clipPath id="ec5661c7e2"><path d="M 173 32 L 183 32 L 183 46 L 173 46 Z M 173 32 " clip-rule="nonzero"/></clipPath><clipPath id="989042885f"><path d="M 203.289062 0.277344 L 259.140625 46.753906 L 219.847656 93.96875 L 164 47.492188 Z M 203.289062 0.277344 " clip-rule="nonzero"/></clipPath><clipPath id="1821cd0b92"><path d="M 203.289062 0.277344 L 259.140625 46.753906 L 219.847656 93.96875 L 164 47.492188 Z M 203.289062 0.277344 " clip-rule="nonzero"/></clipPath><clipPath id="bc609d2f0b"><path d="M 203.289062 0.277344 L 259.140625 46.753906 L 219.847656 93.96875 L 164 47.492188 Z M 203.289062 0.277344 " clip-rule="nonzero"/></clipPath><clipPath id="9229aae996"><path d="M 177.75 30.945312 L 185.707031 37.566406 L 178.414062 46.328125 L 170.460938 39.707031 Z M 177.75 30.945312 " clip-rule="nonzero"/></clipPath><clipPath id="cee5232d5f"><path d="M 177.785156 30.972656 L 185.707031 37.566406 L 178.414062 46.328125 L 170.496094 39.734375 Z M 177.785156 30.972656 " clip-rule="nonzero"/></clipPath><clipPath id="5924b28eac"><path d="M 174 41 L 196 41 L 196 63 L 174 63 Z M 174 41 " clip-rule="nonzero"/></clipPath><clipPath id="ea58526de8"><path d="M 203.289062 0.277344 L 259.140625 46.753906 L 219.847656 93.96875 L 164 47.492188 Z M 203.289062 0.277344 " clip-rule="nonzero"/></clipPath><clipPath id="be18fa9264"><path d="M 203.289062 0.277344 L 259.140625 46.753906 L 219.847656 93.96875 L 164 47.492188 Z M 203.289062 0.277344 " clip-rule="nonzero"/></clipPath><clipPath id="65155ef123"><path d="M 203.289062 0.277344 L 259.140625 46.753906 L 219.847656 93.96875 L 164 47.492188 Z M 203.289062 0.277344 " clip-rule="nonzero"/></clipPath><clipPath id="8293373c2f"><path d="M 185.578125 38.808594 L 201.984375 52.464844 L 188.859375 68.238281 L 172.453125 54.582031 Z M 185.578125 38.808594 " clip-rule="nonzero"/></clipPath><clipPath id="ec84dd6d97"><path d="M 185.578125 38.808594 L 201.984375 52.464844 L 188.890625 68.203125 L 172.480469 54.546875 Z M 185.578125 38.808594 " clip-rule="nonzero"/></clipPath><clipPath id="e0ec2eab21"><path d="M 182 24 L 193 24 L 193 39 L 182 39 Z M 182 24 " clip-rule="nonzero"/></clipPath><clipPath id="e37eac7131"><path d="M 203.289062 0.277344 L 259.140625 46.753906 L 219.847656 93.96875 L 164 47.492188 Z M 203.289062 0.277344 " clip-rule="nonzero"/></clipPath><clipPath id="0d386a2b81"><path d="M 203.289062 0.277344 L 259.140625 46.753906 L 219.847656 93.96875 L 164 47.492188 Z M 203.289062 0.277344 " clip-rule="nonzero"/></clipPath><clipPath id="bfbb6ce69d"><path d="M 203.289062 0.277344 L 259.140625 46.753906 L 219.847656 93.96875 L 164 47.492188 Z M 203.289062 0.277344 " clip-rule="nonzero"/></clipPath><clipPath id="31d873df53"><path d="M 195 42 L 208 42 L 208 53 L 195 53 Z M 195 42 " clip-rule="nonzero"/></clipPath><clipPath id="478da2a023"><path d="M 203.289062 0.277344 L 259.140625 46.753906 L 219.847656 93.96875 L 164 47.492188 Z M 203.289062 0.277344 " clip-rule="nonzero"/></clipPath><clipPath id="29c859ce44"><path d="M 203.289062 0.277344 L 259.140625 46.753906 L 219.847656 93.96875 L 164 47.492188 Z M 203.289062 0.277344 " clip-rule="nonzero"/></clipPath><clipPath id="0315f484a3"><path d="M 203.289062 0.277344 L 259.140625 46.753906 L 219.847656 93.96875 L 164 47.492188 Z M 203.289062 0.277344 " clip-rule="nonzero"/></clipPath><clipPath id="9911a9e4b1"><path d="M 192 28 L 205 28 L 205 42 L 192 42 Z M 192 28 " clip-rule="nonzero"/></clipPath><clipPath id="b34358212e"><path d="M 203.289062 0.277344 L 259.140625 46.753906 L 219.847656 93.96875 L 164 47.492188 Z M 203.289062 0.277344 " clip-rule="nonzero"/></clipPath><clipPath id="5b2f4aab05"><path d="M 203.289062 0.277344 L 259.140625 46.753906 L 219.847656 93.96875 L 164 47.492188 Z M 203.289062 0.277344 " clip-rule="nonzero"/></clipPath><clipPath id="05413003ae"><path d="M 203.289062 0.277344 L 259.140625 46.753906 L 219.847656 93.96875 L 164 47.492188 Z M 203.289062 0.277344 " clip-rule="nonzero"/></clipPath></defs><g clip-path="url(#9a99578a8a)"><g clip-path="url(#fa9b7fa6fe)"><g clip-path="url(#fabf8353d4)"><g clip-path="url(#36861af7fb)"><path fill="#110f0d" d="M 227.265625 33.851562 C 228.679688 33.347656 229.875 33.4375 230.824219 34.128906 C 231.765625 34.875 232.171875 36.003906 232.023438 37.488281 C 231.851562 38.996094 231.230469 40.453125 230.167969 41.816406 C 229.085938 43.214844 227.851562 44.109375 226.511719 44.484375 C 225.773438 44.734375 225.097656 44.828125 224.453125 44.769531 C 223.871094 44.714844 223.347656 44.511719 222.902344 44.160156 L 222.871094 44.132812 C 221.96875 43.421875 221.582031 42.300781 221.722656 40.8125 C 221.816406 39.34375 222.433594 37.890625 223.546875 36.503906 C 224.554688 35.160156 225.8125 34.265625 227.265625 33.851562 " fill-opacity="1" fill-rule="nonzero"/></g></g></g></g><g clip-path="url(#134022001e)"><g clip-path="url(#8961c44cd3)"><g clip-path="url(#3faea20364)"><g clip-path="url(#f1ca7e4590)"><path fill="#110f0d" d="M 224.792969 45.933594 C 228.855469 45.507812 231.800781 46.339844 233.527344 48.390625 L 233.554688 48.425781 C 233.742188 48.738281 233.910156 49.070312 234.046875 49.410156 C 235.015625 51.773438 234.777344 54.785156 233.34375 58.355469 C 232.84375 59.585938 232.21875 60.875 231.492188 62.199219 C 230.230469 64.230469 228.96875 65.691406 227.722656 66.554688 C 226.070312 67.542969 224.613281 67.554688 223.398438 66.59375 C 222.277344 65.710938 221.363281 63.960938 220.671875 61.382812 C 220.398438 60.074219 219.78125 59.027344 218.828125 58.277344 C 218.707031 58.183594 218.582031 58.09375 218.441406 58 C 218.152344 57.789062 217.871094 57.574219 217.609375 57.367188 C 216.050781 56.136719 214.945312 54.9375 214.332031 53.808594 C 213.6875 52.679688 213.53125 51.632812 213.863281 50.691406 C 214.308594 49.421875 215.59375 48.382812 217.808594 47.515625 C 220.429688 46.675781 222.78125 46.144531 224.792969 45.933594 " fill-opacity="1" fill-rule="nonzero"/></g></g></g></g><g clip-path="url(#8602aaa4df)"><g clip-path="url(#3c64d2b126)"><g clip-path="url(#f8d79f33ef)"><g clip-path="url(#c9e3dd1b24)"><path fill="#110f0d" d="M 238.457031 45.316406 C 236.820312 45.898438 235.457031 45.769531 234.402344 44.933594 L 234.394531 44.929688 C 233.390625 44.078125 232.964844 42.792969 233.125 41.121094 C 233.203125 39.414062 233.871094 37.792969 235.109375 36.292969 C 236.367188 34.75 237.78125 33.703125 239.3125 33.191406 C 240.929688 32.644531 242.273438 32.785156 243.308594 33.605469 L 243.339844 33.628906 C 244.335938 34.433594 244.804688 35.703125 244.730469 37.402344 L 244.730469 37.433594 C 244.484375 39.109375 243.785156 40.667969 242.597656 42.195312 C 242.007812 42.96875 241.335938 43.621094 240.613281 44.125 C 239.972656 44.613281 239.25 45.015625 238.457031 45.316406 " fill-opacity="1" fill-rule="nonzero"/></g></g></g></g><g clip-path="url(#4c92acbb76)"><g clip-path="url(#720e972538)"><g clip-path="url(#09e7563829)"><g clip-path="url(#e8b149c1ca)"><path fill="#110f0d" d="M 236.070312 56.664062 C 237.171875 55.996094 238.46875 55.671875 240.019531 55.675781 C 240.152344 55.671875 240.285156 55.679688 240.421875 55.683594 C 240.496094 55.6875 240.570312 55.691406 240.644531 55.695312 C 242.3125 55.738281 243.757812 56.234375 244.941406 57.171875 L 244.976562 57.199219 C 246.214844 58.046875 246.832031 59.0625 246.820312 60.238281 C 246.761719 61.425781 246.074219 62.40625 244.769531 63.15625 C 243.453125 63.886719 241.902344 64.214844 240.164062 64.132812 C 239.164062 64.082031 238.273438 63.90625 237.515625 63.617188 C 236.890625 63.367188 236.328125 63.050781 235.863281 62.683594 C 235.859375 62.683594 235.859375 62.683594 235.859375 62.683594 C 235.789062 62.628906 235.71875 62.578125 235.65625 62.527344 C 235.128906 62.109375 234.71875 61.652344 234.425781 61.164062 C 234.128906 60.652344 233.992188 60.109375 234.011719 59.550781 C 234.0625 58.398438 234.753906 57.425781 236.070312 56.664062 " fill-opacity="1" fill-rule="nonzero"/></g></g></g></g><g clip-path="url(#7dd2fb92d3)"><g clip-path="url(#5c2b00be3a)"><g clip-path="url(#55d12a4234)"><g clip-path="url(#436a9437f1)"><path fill="#110f0d" d="M 246.925781 52.84375 C 245.953125 53.164062 245.054688 53.324219 244.195312 53.332031 C 243.371094 53.398438 242.546875 53.328125 241.734375 53.121094 L 241.609375 53.085938 C 241.398438 53.027344 241.199219 52.96875 241.003906 52.894531 C 240.511719 52.707031 240.082031 52.472656 239.726562 52.1875 C 239.175781 51.753906 238.785156 51.203125 238.566406 50.542969 C 238.199219 49.277344 238.566406 47.980469 239.636719 46.699219 C 240.640625 45.328125 242.101562 44.355469 243.972656 43.796875 C 244.773438 43.554688 245.566406 43.398438 246.332031 43.332031 C 247.363281 43.246094 248.300781 43.316406 249.203125 43.542969 C 250.847656 44 251.894531 44.882812 252.308594 46.15625 C 252.691406 47.363281 252.378906 48.675781 251.382812 50.058594 L 251.371094 50.074219 L 251.359375 50.082031 C 250.242188 51.316406 248.75 52.242188 246.925781 52.84375 " fill-opacity="1" fill-rule="nonzero"/></g></g></g></g><g clip-path="url(#ec5661c7e2)"><g clip-path="url(#989042885f)"><g clip-path="url(#1821cd0b92)"><g clip-path="url(#bc609d2f0b)"><g clip-path="url(#9229aae996)"><g clip-path="url(#cee5232d5f)"><path fill="#110f0d" d="M 178.210938 32.230469 C 179.410156 32.265625 180.410156 32.933594 181.183594 34.214844 C 181.949219 35.527344 182.324219 37.070312 182.296875 38.800781 C 182.269531 40.574219 181.820312 42.035156 180.976562 43.132812 C 180.535156 43.777344 180.054688 44.253906 179.503906 44.59375 C 179.007812 44.902344 178.46875 45.050781 177.902344 45.03125 L 177.863281 45.03125 C 176.714844 45 175.734375 44.328125 174.949219 43.046875 C 174.148438 41.8125 173.769531 40.277344 173.828125 38.496094 C 173.824219 36.808594 174.292969 35.339844 175.203125 34.140625 C 176.03125 32.886719 177.039062 32.242188 178.210938 32.230469 " fill-opacity="1" fill-rule="nonzero"/></g></g></g></g></g></g><g clip-path="url(#5924b28eac)"><g clip-path="url(#ea58526de8)"><g clip-path="url(#be18fa9264)"><g clip-path="url(#65155ef123)"><g clip-path="url(#8293373c2f)"><g clip-path="url(#ec84dd6d97)"><path fill="#110f0d" d="M 188.917969 42.074219 L 188.960938 42.089844 C 189.296875 42.226562 189.628906 42.394531 189.945312 42.585938 C 192.132812 43.90625 193.746094 46.464844 194.742188 50.191406 C 195.082031 51.484375 195.359375 52.890625 195.566406 54.390625 C 195.777344 56.777344 195.648438 58.707031 195.171875 60.148438 C 194.441406 61.929688 193.289062 62.808594 191.742188 62.765625 C 190.320312 62.722656 188.539062 61.867188 186.445312 60.207031 C 185.441406 59.320312 184.320312 58.851562 183.113281 58.816406 C 182.960938 58.8125 182.804688 58.816406 182.636719 58.824219 C 182.277344 58.828125 181.925781 58.824219 181.59375 58.816406 C 179.613281 58.757812 178.011719 58.453125 176.84375 57.917969 C 175.65625 57.394531 174.902344 56.644531 174.601562 55.691406 C 174.195312 54.40625 174.597656 52.800781 175.847656 50.777344 C 177.4375 48.535156 178.996094 46.703125 180.472656 45.328125 C 183.460938 42.554688 186.308594 41.460938 188.917969 42.074219 " fill-opacity="1" fill-rule="nonzero"/></g></g></g></g></g></g><g clip-path="url(#e0ec2eab21)"><g clip-path="url(#e37eac7131)"><g clip-path="url(#0d386a2b81)"><g clip-path="url(#bfbb6ce69d)"><path fill="#110f0d" d="M 187.546875 38.773438 L 187.535156 38.773438 C 186.222656 38.691406 185.113281 37.914062 184.238281 36.476562 C 183.28125 35.058594 182.839844 33.351562 182.929688 31.40625 C 183.007812 29.414062 183.511719 27.726562 184.421875 26.398438 C 185.390625 24.996094 186.542969 24.300781 187.859375 24.339844 L 187.902344 24.339844 C 189.179688 24.390625 190.3125 25.132812 191.273438 26.542969 L 191.289062 26.566406 C 192.097656 28.0625 192.476562 29.730469 192.445312 31.667969 C 192.433594 32.644531 192.289062 33.570312 192.015625 34.40625 C 191.796875 35.183594 191.460938 35.941406 191.011719 36.65625 C 190.050781 38.101562 188.886719 38.8125 187.546875 38.773438 " fill-opacity="1" fill-rule="nonzero"/></g></g></g></g><g clip-path="url(#31d873df53)"><g clip-path="url(#478da2a023)"><g clip-path="url(#29c859ce44)"><g clip-path="url(#0315f484a3)"><path fill="#110f0d" d="M 199.347656 52.164062 C 199.34375 52.164062 199.34375 52.164062 199.34375 52.164062 C 199.257812 52.164062 199.171875 52.164062 199.085938 52.164062 C 198.417969 52.140625 197.816406 52.023438 197.292969 51.804688 C 196.746094 51.566406 196.3125 51.214844 195.992188 50.753906 C 195.339844 49.796875 195.3125 48.601562 195.902344 47.203125 C 196.386719 46.007812 197.222656 44.972656 198.464844 44.042969 C 198.570312 43.964844 198.679688 43.886719 198.789062 43.8125 C 198.851562 43.773438 198.914062 43.730469 198.976562 43.683594 C 200.332031 42.722656 201.78125 42.257812 203.289062 42.300781 L 203.335938 42.304688 C 204.832031 42.242188 205.933594 42.691406 206.625 43.644531 C 207.292969 44.628906 207.332031 45.832031 206.738281 47.21875 C 206.125 48.589844 205.085938 49.78125 203.648438 50.757812 C 202.820312 51.3125 202.003906 51.703125 201.226562 51.925781 C 200.578125 52.101562 199.941406 52.183594 199.347656 52.164062 " fill-opacity="1" fill-rule="nonzero"/></g></g></g></g><g clip-path="url(#9911a9e4b1)"><g clip-path="url(#b34358212e)"><g clip-path="url(#5b2f4aab05)"><g clip-path="url(#05413003ae)"><path fill="#110f0d" d="M 198.304688 40.96875 L 198.183594 41.011719 C 197.976562 41.089844 197.785156 41.167969 197.582031 41.222656 C 197.078125 41.367188 196.59375 41.433594 196.140625 41.421875 C 195.441406 41.402344 194.800781 41.191406 194.226562 40.789062 C 193.179688 39.992188 192.691406 38.730469 192.777344 37.0625 C 192.761719 35.359375 193.339844 33.703125 194.5 32.136719 C 194.992188 31.460938 195.535156 30.859375 196.105469 30.347656 C 196.875 29.664062 197.664062 29.15625 198.523438 28.800781 C 200.109375 28.179688 201.472656 28.265625 202.566406 29.042969 C 203.597656 29.785156 204.132812 31.027344 204.167969 32.734375 L 204.167969 32.75 L 204.164062 32.765625 C 204.011719 34.421875 203.375 36.0625 202.28125 37.636719 C 201.699219 38.476562 201.074219 39.144531 200.394531 39.664062 C 199.773438 40.210938 199.074219 40.648438 198.304688 40.96875 " fill-opacity="1" fill-rule="nonzero"/></g></g></g></g><g fill="#ffbd59" fill-opacity="1"><g transform="translate(0, 106.643684)"><g><path d="M 4.609375 0 L 4.609375 -47.421875 L 13.28125 -47.421875 L 13.28125 -27.703125 L 34.546875 -27.703125 L 34.546875 -47.421875 L 43.21875 -47.421875 L 43.21875 0 L 34.546875 0 L 34.546875 -20.65625 L 13.28125 -20.65625 L 13.28125 0 Z M 4.609375 0 "/></g></g></g><g fill="#ffbd59" fill-opacity="1"><g transform="translate(44.437775, 106.643684)"><g><path d="M 15.984375 0.8125 C 13.097656 0.8125 10.726562 0.347656 8.875 -0.578125 C 7.019531 -1.503906 5.640625 -2.734375 4.734375 -4.265625 C 3.835938 -5.796875 3.390625 -7.488281 3.390625 -9.34375 C 3.390625 -12.457031 4.609375 -14.984375 7.046875 -16.921875 C 9.484375 -18.867188 13.140625 -19.84375 18.015625 -19.84375 L 26.546875 -19.84375 L 26.546875 -20.65625 C 26.546875 -22.957031 25.890625 -24.648438 24.578125 -25.734375 C 23.273438 -26.816406 21.648438 -27.359375 19.703125 -27.359375 C 17.941406 -27.359375 16.40625 -26.941406 15.09375 -26.109375 C 13.789062 -25.273438 12.984375 -24.046875 12.671875 -22.421875 L 4.203125 -22.421875 C 4.421875 -24.859375 5.242188 -26.976562 6.671875 -28.78125 C 8.097656 -30.59375 9.9375 -31.984375 12.1875 -32.953125 C 14.445312 -33.921875 16.976562 -34.40625 19.78125 -34.40625 C 24.5625 -34.40625 28.328125 -33.207031 31.078125 -30.8125 C 33.835938 -28.425781 35.21875 -25.039062 35.21875 -20.65625 L 35.21875 0 L 27.84375 0 L 27.03125 -5.421875 C 26.03125 -3.609375 24.640625 -2.113281 22.859375 -0.9375 C 21.078125 0.226562 18.785156 0.8125 15.984375 0.8125 Z M 17.953125 -5.953125 C 20.429688 -5.953125 22.359375 -6.765625 23.734375 -8.390625 C 25.117188 -10.023438 25.988281 -12.035156 26.34375 -14.421875 L 18.96875 -14.421875 C 16.664062 -14.421875 15.015625 -14.003906 14.015625 -13.171875 C 13.023438 -12.335938 12.53125 -11.3125 12.53125 -10.09375 C 12.53125 -8.78125 13.023438 -7.757812 14.015625 -7.03125 C 15.015625 -6.3125 16.328125 -5.953125 17.953125 -5.953125 Z M 17.953125 -5.953125 "/></g></g></g><g fill="#ffbd59" fill-opacity="1"><g transform="translate(80.137023, 106.643684)"><g><path d="M 4.40625 14.90625 L 4.40625 -33.59375 L 12.125 -33.59375 L 13.078125 -28.78125 C 14.160156 -30.269531 15.59375 -31.578125 17.375 -32.703125 C 19.15625 -33.835938 21.46875 -34.40625 24.3125 -34.40625 C 27.476562 -34.40625 30.300781 -33.632812 32.78125 -32.09375 C 35.269531 -30.5625 37.234375 -28.460938 38.671875 -25.796875 C 40.117188 -23.140625 40.84375 -20.117188 40.84375 -16.734375 C 40.84375 -13.347656 40.117188 -10.332031 38.671875 -7.6875 C 37.234375 -5.039062 35.269531 -2.960938 32.78125 -1.453125 C 30.300781 0.0546875 27.476562 0.8125 24.3125 0.8125 C 21.789062 0.8125 19.578125 0.335938 17.671875 -0.609375 C 15.773438 -1.554688 14.242188 -2.890625 13.078125 -4.609375 L 13.078125 14.90625 Z M 22.484375 -6.78125 C 25.242188 -6.78125 27.523438 -7.703125 29.328125 -9.546875 C 31.128906 -11.398438 32.03125 -13.796875 32.03125 -16.734375 C 32.03125 -19.671875 31.128906 -22.085938 29.328125 -23.984375 C 27.523438 -25.878906 25.242188 -26.828125 22.484375 -26.828125 C 19.679688 -26.828125 17.390625 -25.890625 15.609375 -24.015625 C 13.828125 -22.140625 12.9375 -19.734375 12.9375 -16.796875 C 12.9375 -13.859375 13.828125 -11.453125 15.609375 -9.578125 C 17.390625 -7.710938 19.679688 -6.78125 22.484375 -6.78125 Z M 22.484375 -6.78125 "/></g></g></g><g fill="#ffbd59" fill-opacity="1"><g transform="translate(120.916799, 106.643684)"><g><path d="M 4.40625 14.90625 L 4.40625 -33.59375 L 12.125 -33.59375 L 13.078125 -28.78125 C 14.160156 -30.269531 15.59375 -31.578125 17.375 -32.703125 C 19.15625 -33.835938 21.46875 -34.40625 24.3125 -34.40625 C 27.476562 -34.40625 30.300781 -33.632812 32.78125 -32.09375 C 35.269531 -30.5625 37.234375 -28.460938 38.671875 -25.796875 C 40.117188 -23.140625 40.84375 -20.117188 40.84375 -16.734375 C 40.84375 -13.347656 40.117188 -10.332031 38.671875 -7.6875 C 37.234375 -5.039062 35.269531 -2.960938 32.78125 -1.453125 C 30.300781 0.0546875 27.476562 0.8125 24.3125 0.8125 C 21.789062 0.8125 19.578125 0.335938 17.671875 -0.609375 C 15.773438 -1.554688 14.242188 -2.890625 13.078125 -4.609375 L 13.078125 14.90625 Z M 22.484375 -6.78125 C 25.242188 -6.78125 27.523438 -7.703125 29.328125 -9.546875 C 31.128906 -11.398438 32.03125 -13.796875 32.03125 -16.734375 C 32.03125 -19.671875 31.128906 -22.085938 29.328125 -23.984375 C 27.523438 -25.878906 25.242188 -26.828125 22.484375 -26.828125 C 19.679688 -26.828125 17.390625 -25.890625 15.609375 -24.015625 C 13.828125 -22.140625 12.9375 -19.734375 12.9375 -16.796875 C 12.9375 -13.859375 13.828125 -11.453125 15.609375 -9.578125 C 17.390625 -7.710938 19.679688 -6.78125 22.484375 -6.78125 Z M 22.484375 -6.78125 "/></g></g></g><g fill="#ffbd59" fill-opacity="1"><g transform="translate(161.696589, 106.643684)"><g><path d="M 8.609375 14.90625 L 16.390625 -2.234375 L 14.359375 -2.234375 L 1.28125 -33.59375 L 10.703125 -33.59375 L 20.109375 -9.953125 L 29.9375 -33.59375 L 39.15625 -33.59375 L 17.8125 14.90625 Z M 8.609375 14.90625 "/></g></g></g><g fill="#000000" fill-opacity="1"><g transform="translate(109.867662, 173.942259)"><g><path d="M 4.609375 0 L 4.609375 -47.421875 L 22.15625 -47.421875 C 25.945312 -47.421875 29.082031 -46.785156 31.5625 -45.515625 C 34.050781 -44.253906 35.90625 -42.515625 37.125 -40.296875 C 38.34375 -38.085938 38.953125 -35.601562 38.953125 -32.84375 C 38.953125 -30.226562 38.363281 -27.828125 37.1875 -25.640625 C 36.007812 -23.453125 34.175781 -21.691406 31.6875 -20.359375 C 29.207031 -19.023438 26.03125 -18.359375 22.15625 -18.359375 L 13.28125 -18.359375 L 13.28125 0 Z M 13.28125 -25.40625 L 21.609375 -25.40625 C 24.628906 -25.40625 26.804688 -26.066406 28.140625 -27.390625 C 29.472656 -28.722656 30.140625 -30.539062 30.140625 -32.84375 C 30.140625 -35.195312 29.472656 -37.039062 28.140625 -38.375 C 26.804688 -39.707031 24.628906 -40.375 21.609375 -40.375 L 13.28125 -40.375 Z M 13.28125 -25.40625 "/></g></g></g><g fill="#000000" fill-opacity="1"><g transform="translate(147.599125, 173.942259)"><g><path d="M 20.734375 0.8125 C 17.335938 0.8125 14.332031 0.09375 11.71875 -1.34375 C 9.101562 -2.789062 7.046875 -4.820312 5.546875 -7.4375 C 4.054688 -10.0625 3.3125 -13.09375 3.3125 -16.53125 C 3.3125 -20.007812 4.046875 -23.101562 5.515625 -25.8125 C 6.984375 -28.519531 9.015625 -30.628906 11.609375 -32.140625 C 14.210938 -33.648438 17.273438 -34.40625 20.796875 -34.40625 C 24.085938 -34.40625 27 -33.679688 29.53125 -32.234375 C 32.0625 -30.796875 34.035156 -28.820312 35.453125 -26.3125 C 36.878906 -23.8125 37.59375 -21.023438 37.59375 -17.953125 C 37.59375 -17.453125 37.582031 -16.929688 37.5625 -16.390625 C 37.539062 -15.847656 37.503906 -15.285156 37.453125 -14.703125 L 11.921875 -14.703125 C 12.097656 -12.078125 13.007812 -10.019531 14.65625 -8.53125 C 16.3125 -7.039062 18.3125 -6.296875 20.65625 -6.296875 C 22.414062 -6.296875 23.894531 -6.691406 25.09375 -7.484375 C 26.289062 -8.273438 27.179688 -9.300781 27.765625 -10.5625 L 36.578125 -10.5625 C 35.941406 -8.445312 34.890625 -6.519531 33.421875 -4.78125 C 31.953125 -3.039062 30.144531 -1.671875 28 -0.671875 C 25.863281 0.316406 23.441406 0.8125 20.734375 0.8125 Z M 20.796875 -27.359375 C 18.671875 -27.359375 16.796875 -26.757812 15.171875 -25.5625 C 13.546875 -24.375 12.507812 -22.554688 12.0625 -20.109375 L 28.78125 -20.109375 C 28.644531 -22.328125 27.832031 -24.085938 26.34375 -25.390625 C 24.851562 -26.703125 23.003906 -27.359375 20.796875 -27.359375 Z M 20.796875 -27.359375 "/></g></g></g><g fill="#000000" fill-opacity="1"><g transform="translate(184.720924, 173.942259)"><g><path d="M 19.375 0 C 15.851562 0 13.03125 -0.851562 10.90625 -2.5625 C 8.78125 -4.28125 7.71875 -7.332031 7.71875 -11.71875 L 7.71875 -26.34375 L 1.96875 -26.34375 L 1.96875 -33.59375 L 7.71875 -33.59375 L 8.734375 -42.609375 L 16.390625 -42.609375 L 16.390625 -33.59375 L 25.46875 -33.59375 L 25.46875 -26.34375 L 16.390625 -26.34375 L 16.390625 -11.65625 C 16.390625 -10.03125 16.738281 -8.910156 17.4375 -8.296875 C 18.132812 -7.691406 19.34375 -7.390625 21.0625 -7.390625 L 25.265625 -7.390625 L 25.265625 0 Z M 19.375 0 "/></g></g></g><g fill="#000000" fill-opacity="1"><g transform="translate(209.85265, 173.942259)"><g><path d="M 18.28125 0.8125 C 15.300781 0.8125 12.679688 0.328125 10.421875 -0.640625 C 8.171875 -1.609375 6.367188 -2.953125 5.015625 -4.671875 C 3.660156 -6.390625 2.847656 -8.378906 2.578125 -10.640625 L 11.3125 -10.640625 C 11.582031 -9.328125 12.316406 -8.207031 13.515625 -7.28125 C 14.710938 -6.351562 16.257812 -5.890625 18.15625 -5.890625 C 20.050781 -5.890625 21.4375 -6.273438 22.3125 -7.046875 C 23.195312 -7.816406 23.640625 -8.695312 23.640625 -9.6875 C 23.640625 -11.132812 23.003906 -12.113281 21.734375 -12.625 C 20.472656 -13.144531 18.710938 -13.65625 16.453125 -14.15625 C 15.015625 -14.46875 13.550781 -14.847656 12.0625 -15.296875 C 10.570312 -15.753906 9.203125 -16.332031 7.953125 -17.03125 C 6.710938 -17.726562 5.707031 -18.628906 4.9375 -19.734375 C 4.175781 -20.847656 3.796875 -22.21875 3.796875 -23.84375 C 3.796875 -26.820312 4.976562 -29.328125 7.34375 -31.359375 C 9.71875 -33.390625 13.050781 -34.40625 17.34375 -34.40625 C 21.3125 -34.40625 24.476562 -33.476562 26.84375 -31.625 C 29.21875 -29.78125 30.632812 -27.234375 31.09375 -23.984375 L 22.890625 -23.984375 C 22.398438 -26.460938 20.523438 -27.703125 17.265625 -27.703125 C 15.640625 -27.703125 14.382812 -27.382812 13.5 -26.75 C 12.625 -26.125 12.1875 -25.335938 12.1875 -24.390625 C 12.1875 -23.390625 12.84375 -22.597656 14.15625 -22.015625 C 15.46875 -21.429688 17.207031 -20.890625 19.375 -20.390625 C 21.71875 -19.847656 23.867188 -19.25 25.828125 -18.59375 C 27.796875 -17.9375 29.367188 -16.960938 30.546875 -15.671875 C 31.722656 -14.390625 32.3125 -12.550781 32.3125 -10.15625 C 32.351562 -8.082031 31.804688 -6.207031 30.671875 -4.53125 C 29.546875 -2.863281 27.921875 -1.554688 25.796875 -0.609375 C 23.679688 0.335938 21.175781 0.8125 18.28125 0.8125 Z M 18.28125 0.8125 "/></g></g></g></svg>